<mxfile host="app.diagrams.net" modified="2021-02-27T15:48:20.908Z" agent="5.0 (Windows)" etag="PxQrGhz7axDAlzoAQ-vV" version="14.4.3" type="github">
  <diagram id="6a731a19-8d31-9384-78a2-239565b7b9f0" name="Page-1">
    <mxGraphModel dx="5547" dy="3048" grid="1" gridSize="10" guides="1" tooltips="1" connect="1" arrows="1" fold="1" page="1" pageScale="1" pageWidth="1600" pageHeight="800" background="#ffffff" math="0" shadow="0">
      <root>
        <mxCell id="0" />
        <mxCell id="1" parent="0" />
        <mxCell id="iaC6b17GLmA-YWx4HKnk-1555" value="Woodworking" style="rounded=1;strokeWidth=3;shadow=0;html=1;fontSize=20;strokeColor=none;fontColor=#EEEEEE;arcSize=10;absoluteArcSize=0;perimeter=ellipsePerimeter;fillColor=#8C4942;perimeterSpacing=2;" parent="1" vertex="1">
          <mxGeometry x="1160" y="110" width="150" height="40" as="geometry" />
        </mxCell>
        <mxCell id="iaC6b17GLmA-YWx4HKnk-1567" value="Rasbperry Pi" style="rounded=1;strokeWidth=3;shadow=0;html=1;fontSize=20;strokeColor=none;glass=0;perimeterSpacing=2;arcSize=10;fillOpacity=100;fontColor=#EEEEEE;absoluteArcSize=0;perimeter=ellipsePerimeter;fillColor=#8C4942;" parent="1" vertex="1">
          <mxGeometry x="760" y="120" width="150" height="40" as="geometry" />
        </mxCell>
        <mxCell id="iaC6b17GLmA-YWx4HKnk-1568" value="Arduino" style="rounded=1;strokeWidth=3;shadow=0;html=1;fontSize=20;strokeColor=none;glass=0;perimeterSpacing=2;arcSize=10;fillOpacity=100;fontColor=#EEEEEE;absoluteArcSize=0;perimeter=ellipsePerimeter;fillColor=#8C4942;" parent="1" vertex="1">
          <mxGeometry x="1130" y="210" width="150" height="40" as="geometry" />
        </mxCell>
        <mxCell id="iaC6b17GLmA-YWx4HKnk-1569" value="Cameras" style="rounded=1;strokeWidth=3;shadow=0;html=1;fontSize=35;strokeColor=none;fillColor=#8C342A;glass=0;perimeterSpacing=2;arcSize=10;fillOpacity=100;fontColor=#EEEEEE;absoluteArcSize=0;perimeter=ellipsePerimeter;" parent="1" vertex="1">
          <mxGeometry x="850" y="50" width="180" height="60" as="geometry" />
        </mxCell>
        <mxCell id="iaC6b17GLmA-YWx4HKnk-1579" value="Kinect" style="rounded=1;strokeWidth=3;shadow=0;html=1;fontSize=35;strokeColor=none;fillColor=#8C342A;glass=0;perimeterSpacing=2;arcSize=10;fillOpacity=100;fontColor=#EEEEEE;absoluteArcSize=0;perimeter=ellipsePerimeter;" parent="1" vertex="1">
          <mxGeometry x="730" y="170" width="180" height="60" as="geometry" />
        </mxCell>
        <mxCell id="iaC6b17GLmA-YWx4HKnk-1582" value="Microphones" style="rounded=1;strokeWidth=3;shadow=0;fontSize=35;strokeColor=none;fillColor=#8C342A;glass=0;perimeterSpacing=2;arcSize=10;fillOpacity=100;labelBackgroundColor=none;labelBorderColor=none;html=1;fontFamily=Helvetica;absoluteArcSize=0;imageAspect=1;portConstraintRotation=0;container=0;comic=0;fontColor=#EEEEEE;perimeter=ellipsePerimeter;" parent="1" vertex="1">
          <mxGeometry x="1040" y="40" width="221" height="60" as="geometry" />
        </mxCell>
        <mxCell id="iaC6b17GLmA-YWx4HKnk-1584" value="Soldering" style="rounded=1;strokeWidth=3;shadow=0;html=1;fontSize=20;strokeColor=none;glass=0;perimeterSpacing=2;arcSize=10;fillOpacity=100;fontColor=#EEEEEE;absoluteArcSize=0;perimeter=ellipsePerimeter;fillColor=#8C4942;" parent="1" vertex="1">
          <mxGeometry x="780" y="240" width="150" height="40" as="geometry" />
        </mxCell>
        <mxCell id="iaC6b17GLmA-YWx4HKnk-1587" value="Audio" style="rounded=1;strokeWidth=3;shadow=0;html=1;fontSize=20;glass=0;sketch=0;strokeColor=none;perimeterSpacing=2;arcSize=10;fillOpacity=100;fontColor=#EEEEEE;absoluteArcSize=0;perimeter=ellipsePerimeter;fillColor=#8C4942;" parent="1" vertex="1">
          <mxGeometry x="1160" y="160" width="130" height="40" as="geometry" />
        </mxCell>
        <mxCell id="iaC6b17GLmA-YWx4HKnk-1588" value="Robots" style="rounded=1;strokeWidth=3;shadow=0;html=1;fontSize=35;strokeColor=none;fillColor=#8C342A;glass=0;perimeterSpacing=2;arcSize=10;fillOpacity=100;fontColor=#EEEEEE;absoluteArcSize=0;perimeter=ellipsePerimeter;" parent="1" vertex="1">
          <mxGeometry x="940" y="210" width="180" height="60" as="geometry" />
        </mxCell>
        <mxCell id="XpdubO5JGkFEaOIm9_27-1352" value="Maxscript" style="rounded=1;strokeWidth=3;shadow=0;html=1;fontSize=20;strokeColor=none;fontColor=#EEEEEE;arcSize=10;absoluteArcSize=0;perimeter=ellipsePerimeter;fillColor=#8C4942;perimeterSpacing=2;" parent="1" vertex="1">
          <mxGeometry x="510" y="110" width="120" height="40" as="geometry" />
        </mxCell>
        <mxCell id="XpdubO5JGkFEaOIm9_27-1353" value="Unity3D" style="rounded=1;strokeWidth=3;shadow=0;html=1;fontSize=20;strokeColor=none;fontColor=#EEEEEE;arcSize=10;absoluteArcSize=0;perimeter=ellipsePerimeter;fillColor=#8C4942;perimeterSpacing=2;" parent="1" vertex="1">
          <mxGeometry x="100" y="110" width="110" height="40" as="geometry" />
        </mxCell>
        <mxCell id="XpdubO5JGkFEaOIm9_27-1355" value="Unreal Engine" style="rounded=1;strokeWidth=3;shadow=0;html=1;fontSize=20;strokeColor=none;glass=0;perimeterSpacing=2;arcSize=10;fillOpacity=100;fontColor=#EEEEEE;absoluteArcSize=0;perimeter=ellipsePerimeter;fillColor=#8C4942;" parent="1" vertex="1">
          <mxGeometry x="240" y="60" width="160" height="40" as="geometry" />
        </mxCell>
        <mxCell id="XpdubO5JGkFEaOIm9_27-1357" value="Kinect" style="rounded=1;strokeWidth=3;shadow=0;html=1;fontSize=20;strokeColor=none;glass=0;perimeterSpacing=2;arcSize=10;fillOpacity=100;fontColor=#EEEEEE;absoluteArcSize=0;perimeter=ellipsePerimeter;fillColor=#8C4942;gradientColor=#753D37;" parent="1" vertex="1">
          <mxGeometry x="490" y="210" width="90" height="40" as="geometry" />
        </mxCell>
        <mxCell id="XpdubO5JGkFEaOIm9_27-1359" value="Python" style="rounded=1;strokeWidth=3;shadow=0;html=1;fontSize=35;strokeColor=none;fillColor=#8C342A;glass=0;perimeterSpacing=2;arcSize=10;fillOpacity=100;fontColor=#EEEEEE;absoluteArcSize=0;perimeter=ellipsePerimeter;" parent="1" vertex="1">
          <mxGeometry x="80" y="40" width="150" height="60" as="geometry" />
        </mxCell>
        <mxCell id="XpdubO5JGkFEaOIm9_27-1361" value="C/C++" style="rounded=1;strokeWidth=3;shadow=0;html=1;fontSize=35;strokeColor=none;fillColor=#8C342A;glass=0;perimeterSpacing=2;arcSize=10;fillOpacity=100;fontColor=#EEEEEE;absoluteArcSize=0;perimeter=ellipsePerimeter;" parent="1" vertex="1">
          <mxGeometry x="71.33" y="160" width="138.67" height="60" as="geometry" />
        </mxCell>
        <mxCell id="XpdubO5JGkFEaOIm9_27-1363" value="OpenGL" style="rounded=1;strokeWidth=3;shadow=0;fontSize=35;strokeColor=none;fillColor=#8C342A;glass=0;perimeterSpacing=2;arcSize=10;fillOpacity=100;labelBackgroundColor=none;labelBorderColor=none;html=1;fontFamily=Helvetica;absoluteArcSize=0;imageAspect=1;portConstraintRotation=0;container=0;comic=0;fontColor=#EEEEEE;perimeter=ellipsePerimeter;" parent="1" vertex="1">
          <mxGeometry x="410" y="40" width="170" height="60" as="geometry" />
        </mxCell>
        <mxCell id="XpdubO5JGkFEaOIm9_27-1365" value="&lt;div style=&quot;font-size: 14px;&quot;&gt;ROS&lt;/div&gt;" style="rounded=1;strokeWidth=3;shadow=0;html=1;fontSize=14;strokeColor=none;glass=0;perimeterSpacing=2;arcSize=10;fillOpacity=100;fontColor=#EEEEEE;absoluteArcSize=0;perimeter=ellipsePerimeter;fillColor=#996C65;" parent="1" vertex="1">
          <mxGeometry x="590" y="70" width="60" height="30" as="geometry" />
        </mxCell>
        <mxCell id="XpdubO5JGkFEaOIm9_27-1367" value="HTML/CSS" style="rounded=1;strokeWidth=3;shadow=0;html=1;fontSize=20;strokeColor=none;glass=0;perimeterSpacing=2;arcSize=10;fillOpacity=100;fontColor=#EEEEEE;absoluteArcSize=0;perimeter=ellipsePerimeter;fillColor=#8C4942;gradientColor=#753D37;" parent="1" vertex="1">
          <mxGeometry x="170" y="240" width="130" height="40" as="geometry" />
        </mxCell>
        <mxCell id="XpdubO5JGkFEaOIm9_27-1370" value="Javascript" style="rounded=1;strokeWidth=3;shadow=0;html=1;fontSize=20;glass=0;sketch=0;strokeColor=none;perimeterSpacing=2;arcSize=10;fillOpacity=100;fontColor=#EEEEEE;absoluteArcSize=0;perimeter=ellipsePerimeter;fillColor=#8C4942;" parent="1" vertex="1">
          <mxGeometry x="510" y="160" width="120" height="40" as="geometry" />
        </mxCell>
        <mxCell id="XpdubO5JGkFEaOIm9_27-1372" value="C#" style="rounded=1;strokeWidth=3;shadow=0;html=1;fontSize=35;strokeColor=none;fillColor=#8C342A;glass=0;perimeterSpacing=2;arcSize=10;fillOpacity=100;fontColor=#EEEEEE;absoluteArcSize=0;perimeter=ellipsePerimeter;" parent="1" vertex="1">
          <mxGeometry x="310" y="200" width="80" height="60" as="geometry" />
        </mxCell>
        <mxCell id="XpdubO5JGkFEaOIm9_27-1373" value="Java" style="rounded=1;strokeWidth=3;shadow=0;html=1;fontSize=14;strokeColor=none;glass=0;perimeterSpacing=2;arcSize=10;fillOpacity=100;fontColor=#EEEEEE;absoluteArcSize=0;perimeter=ellipsePerimeter;fillColor=#996C65;" parent="1" vertex="1">
          <mxGeometry x="100" y="230" width="60" height="30" as="geometry" />
        </mxCell>
        <mxCell id="XpdubO5JGkFEaOIm9_27-1375" value="OpenCV" style="rounded=1;strokeWidth=3;shadow=0;html=1;fontSize=14;strokeColor=none;glass=0;perimeterSpacing=2;arcSize=10;fillOpacity=100;fontColor=#EEEEEE;absoluteArcSize=0;perimeter=ellipsePerimeter;fillColor=#996C65;" parent="1" vertex="1">
          <mxGeometry x="220" y="200" width="80" height="30" as="geometry" />
        </mxCell>
        <mxCell id="XpdubO5JGkFEaOIm9_27-1378" value="3dsmax" style="rounded=1;strokeWidth=3;shadow=0;html=1;fontSize=20;strokeColor=none;fontColor=#EEEEEE;arcSize=10;absoluteArcSize=0;perimeter=ellipsePerimeter;fillColor=#8C4942;perimeterSpacing=2;" parent="1" vertex="1">
          <mxGeometry x="535" y="570" width="90" height="40" as="geometry" />
        </mxCell>
        <mxCell id="XpdubO5JGkFEaOIm9_27-1380" value="Audition" style="rounded=1;strokeWidth=3;shadow=0;html=1;fontSize=20;strokeColor=none;glass=0;perimeterSpacing=2;arcSize=10;fillOpacity=100;fontColor=#EEEEEE;absoluteArcSize=0;perimeter=ellipsePerimeter;fillColor=#8C4942;" parent="1" vertex="1">
          <mxGeometry x="395" y="410" width="100" height="40" as="geometry" />
        </mxCell>
        <mxCell id="XpdubO5JGkFEaOIm9_27-1388" value="Printing" style="rounded=1;strokeWidth=3;shadow=0;html=1;fontSize=14;strokeColor=none;glass=0;perimeterSpacing=2;arcSize=10;fillOpacity=100;fontColor=#EEEEEE;absoluteArcSize=0;perimeter=ellipsePerimeter;fillColor=#996C65;" parent="1" vertex="1">
          <mxGeometry x="535" y="530" width="70" height="30" as="geometry" />
        </mxCell>
        <mxCell id="XpdubO5JGkFEaOIm9_27-1390" value="Illustrator" style="rounded=1;strokeWidth=3;shadow=0;html=1;fontSize=14;strokeColor=none;glass=0;perimeterSpacing=2;arcSize=10;fillOpacity=100;fontColor=#EEEEEE;absoluteArcSize=0;perimeter=ellipsePerimeter;fillColor=#996C65;" parent="1" vertex="1">
          <mxGeometry x="205" y="540" width="80" height="30" as="geometry" />
        </mxCell>
        <mxCell id="XpdubO5JGkFEaOIm9_27-1394" value="Maya" style="rounded=1;strokeWidth=3;shadow=0;html=1;fontSize=14;strokeColor=none;glass=0;perimeterSpacing=2;arcSize=10;fillOpacity=100;fontColor=#EEEEEE;absoluteArcSize=0;perimeter=ellipsePerimeter;fillColor=#996C65;" parent="1" vertex="1">
          <mxGeometry x="235" y="580" width="50" height="30" as="geometry" />
        </mxCell>
        <mxCell id="XpdubO5JGkFEaOIm9_27-1396" value="Premiere" style="rounded=1;strokeWidth=3;shadow=0;html=1;fontSize=20;strokeColor=none;glass=0;perimeterSpacing=2;arcSize=10;fillOpacity=100;fontColor=#EEEEEE;absoluteArcSize=0;perimeter=ellipsePerimeter;fillColor=#8C4942;" parent="1" vertex="1">
          <mxGeometry x="315" y="480" width="100" height="40" as="geometry" />
        </mxCell>
        <mxCell id="XpdubO5JGkFEaOIm9_27-1401" value="Sublime" style="rounded=1;strokeWidth=3;shadow=0;html=1;fontSize=20;strokeColor=none;fontColor=#EEEEEE;arcSize=10;absoluteArcSize=0;perimeter=ellipsePerimeter;fillColor=#8C4942;perimeterSpacing=2;" parent="1" vertex="1">
          <mxGeometry x="1050" y="450" width="100" height="40" as="geometry" />
        </mxCell>
        <mxCell id="XpdubO5JGkFEaOIm9_27-1403" value="Git (hub/lab)" style="rounded=1;strokeWidth=3;shadow=0;html=1;fontSize=20;strokeColor=none;glass=0;perimeterSpacing=2;arcSize=10;fillOpacity=100;fontColor=#EEEEEE;absoluteArcSize=0;perimeter=ellipsePerimeter;fillColor=#8C4942;" parent="1" vertex="1">
          <mxGeometry x="750" y="540" width="130" height="40" as="geometry" />
        </mxCell>
        <mxCell id="XpdubO5JGkFEaOIm9_27-1409" value="VS (+Code)" style="rounded=1;strokeWidth=3;shadow=0;fontSize=35;strokeColor=none;fillColor=#8C342A;glass=0;perimeterSpacing=2;arcSize=10;fillOpacity=100;labelBackgroundColor=none;labelBorderColor=none;html=1;fontFamily=Helvetica;absoluteArcSize=0;imageAspect=1;portConstraintRotation=0;container=0;comic=0;fontColor=#EEEEEE;gradientColor=#7D2F26;perimeter=ellipsePerimeter;" parent="1" vertex="1">
          <mxGeometry x="740" y="430" width="220" height="60" as="geometry" />
        </mxCell>
        <mxCell id="XpdubO5JGkFEaOIm9_27-1412" value="Teleconferencing" style="rounded=1;strokeWidth=3;shadow=0;html=1;fontSize=20;strokeColor=none;glass=0;perimeterSpacing=2;arcSize=10;fillOpacity=100;fontColor=#EEEEEE;absoluteArcSize=0;perimeter=ellipsePerimeter;fillColor=#8C4942;" parent="1" vertex="1">
          <mxGeometry x="980" y="660" width="170" height="40" as="geometry" />
        </mxCell>
        <mxCell id="XpdubO5JGkFEaOIm9_27-1416" value="Notepad++" style="rounded=1;strokeWidth=3;shadow=0;html=1;fontSize=20;glass=0;sketch=0;strokeColor=none;perimeterSpacing=2;arcSize=10;fillOpacity=100;fontColor=#EEEEEE;absoluteArcSize=0;perimeter=ellipsePerimeter;fillColor=#8C4942;" parent="1" vertex="1">
          <mxGeometry x="1140" y="540" width="130" height="40" as="geometry" />
        </mxCell>
        <mxCell id="XpdubO5JGkFEaOIm9_27-1422" value="&lt;div&gt;LaTeX&lt;/div&gt;" style="rounded=1;strokeWidth=3;shadow=0;html=1;fontSize=35;strokeColor=none;fillColor=#8C342A;glass=0;perimeterSpacing=2;arcSize=10;fillOpacity=100;fontColor=#EEEEEE;absoluteArcSize=0;perimeter=ellipsePerimeter;" parent="1" vertex="1">
          <mxGeometry x="1160" y="470" width="140" height="60" as="geometry" />
        </mxCell>
        <mxCell id="XpdubO5JGkFEaOIm9_27-1423" value="GSuite" style="rounded=1;strokeWidth=3;shadow=0;html=1;fontSize=35;strokeColor=none;fillColor=#8C342A;glass=0;perimeterSpacing=2;arcSize=10;fillOpacity=100;fontColor=#EEEEEE;absoluteArcSize=0;perimeter=ellipsePerimeter;" parent="1" vertex="1">
          <mxGeometry x="830" y="660" width="140" height="60" as="geometry" />
        </mxCell>
        <mxCell id="XpdubO5JGkFEaOIm9_27-1425" value="Whiteboarding" style="rounded=1;strokeWidth=3;shadow=0;html=1;fontSize=35;strokeColor=none;fillColor=#8C342A;glass=0;perimeterSpacing=2;arcSize=10;fillOpacity=100;fontColor=#EEEEEE;absoluteArcSize=0;perimeter=ellipsePerimeter;" parent="1" vertex="1">
          <mxGeometry x="750" y="590" width="250" height="60" as="geometry" />
        </mxCell>
        <mxCell id="XpdubO5JGkFEaOIm9_27-1427" value="Presentations" style="rounded=1;strokeWidth=3;shadow=0;html=1;fontSize=35;strokeColor=none;fillColor=#8C342A;glass=0;perimeterSpacing=2;arcSize=10;fillOpacity=100;fontColor=#EEEEEE;absoluteArcSize=0;perimeter=ellipsePerimeter;" parent="1" vertex="1">
          <mxGeometry x="1010" y="590" width="240" height="60" as="geometry" />
        </mxCell>
        <mxCell id="XpdubO5JGkFEaOIm9_27-1428" value="SVN" style="rounded=1;strokeWidth=3;shadow=0;html=1;fontSize=20;strokeColor=none;fontColor=#EEEEEE;arcSize=10;absoluteArcSize=0;perimeter=ellipsePerimeter;fillColor=#8C4942;perimeterSpacing=2;" parent="1" vertex="1">
          <mxGeometry x="970" y="450" width="70" height="40" as="geometry" />
        </mxCell>
        <mxCell id="n3WQvBwTVA5E7rVI3cKe-1350" value="Videography" style="rounded=1;strokeWidth=3;shadow=0;fontSize=35;strokeColor=none;fillColor=#8C342A;glass=0;perimeterSpacing=2;arcSize=10;fillOpacity=100;labelBackgroundColor=none;labelBorderColor=none;html=1;fontFamily=Helvetica;absoluteArcSize=0;imageAspect=1;portConstraintRotation=0;container=0;comic=0;fontColor=#EEEEEE;perimeter=ellipsePerimeter;" parent="1" vertex="1">
          <mxGeometry x="165" y="400" width="220" height="60" as="geometry" />
        </mxCell>
        <mxCell id="n3WQvBwTVA5E7rVI3cKe-1351" value="Photoshop" style="rounded=1;strokeWidth=3;shadow=0;fontSize=35;strokeColor=none;fillColor=#8C342A;glass=0;perimeterSpacing=2;arcSize=10;fillOpacity=100;labelBackgroundColor=none;labelBorderColor=none;html=1;fontFamily=Helvetica;absoluteArcSize=0;imageAspect=1;portConstraintRotation=0;container=0;comic=0;fontColor=#EEEEEE;perimeter=ellipsePerimeter;" parent="1" vertex="1">
          <mxGeometry x="95" y="470" width="190" height="60" as="geometry" />
        </mxCell>
        <mxCell id="n3WQvBwTVA5E7rVI3cKe-1352" value="Photography" style="rounded=1;strokeWidth=3;shadow=0;html=1;fontSize=35;strokeColor=none;fillColor=#8C342A;glass=0;perimeterSpacing=2;arcSize=10;fillOpacity=100;fontColor=#EEEEEE;absoluteArcSize=0;perimeter=ellipsePerimeter;" parent="1" vertex="1">
          <mxGeometry x="165" y="620" width="230" height="60" as="geometry" />
        </mxCell>
        <mxCell id="n3WQvBwTVA5E7rVI3cKe-1353" value="MSPaint" style="rounded=1;strokeWidth=3;shadow=0;html=1;fontSize=35;strokeColor=none;fillColor=#8C342A;glass=0;perimeterSpacing=2;arcSize=10;fillOpacity=100;fontColor=#EEEEEE;absoluteArcSize=0;perimeter=ellipsePerimeter;" parent="1" vertex="1">
          <mxGeometry x="405" y="620" width="170" height="60" as="geometry" />
        </mxCell>
        <mxCell id="n3WQvBwTVA5E7rVI3cKe-1354" value="Lightroom" style="rounded=1;strokeWidth=3;shadow=0;html=1;fontSize=35;strokeColor=none;fillColor=#8C342A;glass=0;perimeterSpacing=2;arcSize=10;fillOpacity=100;fontColor=#EEEEEE;absoluteArcSize=0;perimeter=ellipsePerimeter;" parent="1" vertex="1">
          <mxGeometry x="425" y="460" width="180" height="60" as="geometry" />
        </mxCell>
        <mxCell id="n3WQvBwTVA5E7rVI3cKe-1355" value="Windows" style="rounded=1;strokeWidth=3;shadow=0;html=1;fontSize=35;strokeColor=none;fillColor=#8C342A;glass=0;perimeterSpacing=2;arcSize=10;fillOpacity=100;fontColor=#EEEEEE;absoluteArcSize=0;perimeter=ellipsePerimeter;" parent="1" vertex="1">
          <mxGeometry x="980" y="380" width="180" height="60" as="geometry" />
        </mxCell>
        <mxCell id="n3WQvBwTVA5E7rVI3cKe-1356" value="Office" style="rounded=1;strokeWidth=3;shadow=0;html=1;fontSize=35;strokeColor=none;fillColor=#8C342A;glass=0;perimeterSpacing=2;arcSize=10;fillOpacity=100;fontColor=#EEEEEE;absoluteArcSize=0;perimeter=ellipsePerimeter;" parent="1" vertex="1">
          <mxGeometry x="840" y="360" width="130" height="60" as="geometry" />
        </mxCell>
        <mxCell id="n3WQvBwTVA5E7rVI3cKe-1357" value="Linux" style="rounded=1;strokeWidth=3;shadow=0;html=1;fontSize=14;strokeColor=none;glass=0;perimeterSpacing=2;arcSize=10;fillOpacity=100;fontColor=#EEEEEE;absoluteArcSize=0;perimeter=ellipsePerimeter;fillColor=#996C65;" parent="1" vertex="1">
          <mxGeometry x="1170" y="430" width="60" height="30" as="geometry" />
        </mxCell>
        <mxCell id="n3WQvBwTVA5E7rVI3cKe-1358" value="OSX" style="rounded=1;strokeWidth=3;shadow=0;html=1;fontSize=14;strokeColor=none;glass=0;perimeterSpacing=2;arcSize=10;fillOpacity=100;fontColor=#EEEEEE;absoluteArcSize=0;perimeter=ellipsePerimeter;fillColor=#996C65;" parent="1" vertex="1">
          <mxGeometry x="830" y="500" width="50" height="30" as="geometry" />
        </mxCell>
        <mxCell id="n3WQvBwTVA5E7rVI3cKe-1359" value="Mercurial" style="rounded=1;strokeWidth=3;shadow=0;html=1;fontSize=14;strokeColor=none;glass=0;perimeterSpacing=2;arcSize=10;fillOpacity=100;fontColor=#EEEEEE;absoluteArcSize=0;perimeter=ellipsePerimeter;fillColor=#996C65;" parent="1" vertex="1">
          <mxGeometry x="1160" y="660" width="80" height="30" as="geometry" />
        </mxCell>
        <mxCell id="n3WQvBwTVA5E7rVI3cKe-1360" value="RPC/IPC" style="rounded=1;strokeWidth=3;shadow=0;html=1;fontSize=14;strokeColor=none;glass=0;perimeterSpacing=2;arcSize=10;fillOpacity=100;fontColor=#EEEEEE;absoluteArcSize=0;perimeter=ellipsePerimeter;fillColor=#996C65;" parent="1" vertex="1">
          <mxGeometry x="400" y="240" width="80" height="30.5" as="geometry" />
        </mxCell>
        <mxCell id="n3WQvBwTVA5E7rVI3cKe-1361" value="MatLab" style="rounded=1;strokeWidth=3;shadow=0;html=1;fontSize=14;strokeColor=none;glass=0;perimeterSpacing=2;arcSize=10;fillOpacity=100;fontColor=#EEEEEE;absoluteArcSize=0;perimeter=ellipsePerimeter;fillColor=#996C65;" parent="1" vertex="1">
          <mxGeometry x="400" y="200" width="80" height="30" as="geometry" />
        </mxCell>
        <mxCell id="n3WQvBwTVA5E7rVI3cKe-1379" value="Hardware" style="rounded=1;whiteSpace=wrap;html=1;shadow=0;sketch=0;gradientColor=none;fontSize=40;fillColor=#E6DEA1;strokeColor=none;arcSize=10;" parent="1" vertex="1">
          <mxGeometry x="920" y="120" width="230" height="80" as="geometry" />
        </mxCell>
        <mxCell id="n3WQvBwTVA5E7rVI3cKe-1380" value="Productivity" style="rounded=1;whiteSpace=wrap;html=1;shadow=0;sketch=0;gradientColor=none;fontSize=40;fillColor=#E6DEA1;strokeColor=none;arcSize=10;" parent="1" vertex="1">
          <mxGeometry x="890" y="500" width="240" height="80" as="geometry" />
        </mxCell>
        <mxCell id="n3WQvBwTVA5E7rVI3cKe-1381" value="Multimedia" style="rounded=1;whiteSpace=wrap;html=1;shadow=0;sketch=0;gradientColor=none;fontSize=40;fillColor=#E6DEA1;strokeColor=none;arcSize=10;" parent="1" vertex="1">
          <mxGeometry x="295" y="530" width="230" height="80" as="geometry" />
        </mxCell>
        <mxCell id="n3WQvBwTVA5E7rVI3cKe-1382" value="Programming" style="rounded=1;whiteSpace=wrap;html=1;shadow=0;sketch=0;gradientColor=none;fontSize=40;fillColor=#E6DEA1;strokeColor=none;arcSize=10;" parent="1" vertex="1">
          <mxGeometry x="220" y="110" width="280" height="80" as="geometry" />
        </mxCell>
      </root>
    </mxGraphModel>
  </diagram>
</mxfile>
